<?xml version="1.0" encoding="utf-8"?>
<!-- Generator: Adobe Illustrator 25.2.3, SVG Export Plug-In . SVG Version: 6.00 Build 0)  -->
<svg version="1.1" id="Layer_1" xmlns="http://www.w3.org/2000/svg" xmlns:xlink="http://www.w3.org/1999/xlink" x="0px" y="0px"
	 viewBox="0 0 22 21" style="enable-background:new 0 0 22 21;" xml:space="preserve">
<style type="text/css">
	.st0{fill-rule:evenodd;clip-rule:evenodd;fill:#EEEEEE;}
</style>
<g id="Layer_1_1_">
	<path class="st0" d="M2.1,20.5v-14H1c-0.6,0-1.1-0.4-1.1-1C-0.1,5.2,0,5,0.2,4.8l10-4c0.4-0.4,1.1-0.4,1.6,0l10,4
		c0.4,0.4,0.4,1,0,1.4c-0.2,0.2-0.5,0.3-0.8,0.3h-1.2v14 M18.7,20.5V5.6l2.2-0.1l-10-4l-10,4l2.2,0.1v14.9"/>
</g>
<g id="Layer_2_1_">
	<path class="st0" d="M4.9,18.3v-4c0-0.5,0.4-0.9,0.9-1h0.1h3c0.5,0,0.9,0.4,1,0.9v0.1v4h2v-4c0-0.5,0.4-0.9,0.9-1h0.1h3
		c0.5,0,0.9,0.4,1,0.9v0.1v4 M17.9,18.3h-14v1h14V18.3z M13.9,14.3h-1v4h3v-4h-1v2h-1V14.3z M6.9,14.3h-1v4h3v-4h-1v2h-1
		C6.9,16.3,6.9,14.3,6.9,14.3z"/>
	<path class="st0" d="M4.9,10.6v-4c0-0.5,0.4-0.9,0.9-1h0.1h3c0.5,0,0.9,0.4,1,0.9v0.1v4h2v-4c0-0.5,0.4-0.9,0.9-1h0.1h3
		c0.5,0,0.9,0.4,1,0.9v0.1v4 M17.9,10.6h-14v1h14V10.6z M13.9,6.6h-1v4h3v-4h-1v2h-1V6.6z M6.9,6.6h-1v4h3v-4h-1v2h-1
		C6.9,8.6,6.9,6.6,6.9,6.6z"/>
</g>
</svg>
